<svg width="1600" height="300" viewBox="0 0 1600 300" fill="none" xmlns="http://www.w3.org/2000/svg" xmlns:xlink="http://www.w3.org/1999/xlink">
<rect width="1600" height="300" fill="url(#pattern0_443_39)"/>
<defs>
<pattern id="pattern0_443_39" patternUnits="userSpaceOnUse" patternTransform="matrix(800 0 0 600 0 0)" preserveAspectRatio="none" viewBox="0 0 1600 1200" width="1" height="1">
<g id="pattern0_443_39_inner">
<g clip-path="url(#clip0_443_39)">
<rect width="1600" height="1200" fill="white"/>
<rect width="1600" height="1200" fill="#FBF4E2"/>
<mask id="mask0_443_39" style="mask-type:alpha" maskUnits="userSpaceOnUse" x="0" y="0" width="1600" height="1200">
<rect width="1600" height="1200" fill="#FBF4E2"/>
</mask>
<g mask="url(#mask0_443_39)">
<path fill-rule="evenodd" clip-rule="evenodd" d="M1544.29 478.291C1544.29 459.279 1528.89 443.866 1509.87 443.866C1490.86 443.866 1475.46 459.279 1475.46 478.291C1475.46 497.304 1490.86 512.717 1509.87 512.717C1528.89 512.717 1544.29 497.304 1544.29 478.291ZM1509.87 402.555C1551.7 402.555 1585.59 436.463 1585.59 478.291C1585.59 520.12 1551.7 554.028 1509.87 554.028C1468.05 554.028 1434.16 520.12 1434.16 478.291C1434.16 436.463 1468.05 402.555 1509.87 402.555Z" fill="#FD6234"/>
<path fill-rule="evenodd" clip-rule="evenodd" d="M1508.4 498.626C1497.02 498.626 1487.78 489.389 1487.78 477.997C1487.78 466.604 1497.02 457.368 1508.4 457.368C1519.79 457.368 1529.02 466.604 1529.02 477.997C1529.02 489.389 1519.79 498.626 1508.4 498.626Z" fill="#463C74"/>
<path fill-rule="evenodd" clip-rule="evenodd" d="M243.938 1179.96C243.938 1168.57 253.171 1159.33 264.56 1159.33H388.296C399.685 1159.33 408.919 1168.57 408.919 1179.96C408.919 1191.35 399.685 1200.59 388.296 1200.59H264.56C253.171 1200.59 243.938 1191.35 243.938 1179.96Z" fill="#FFC735"/>
<path fill-rule="evenodd" clip-rule="evenodd" d="M450.164 665.128C450.164 706.957 416.31 740.865 374.548 740.865H237.063C195.301 740.865 161.447 706.957 161.447 665.128C161.447 623.3 195.301 589.392 237.063 589.392H374.548C416.31 589.392 450.164 623.3 450.164 665.128ZM374.548 699.554C393.53 699.554 408.919 684.141 408.919 665.128C408.919 646.116 393.53 630.703 374.548 630.703H237.063C218.081 630.703 202.692 646.116 202.692 665.128C202.692 684.141 218.081 699.554 237.063 699.554H374.548Z" fill="#B4D51E"/>
<path fill-rule="evenodd" clip-rule="evenodd" d="M83.6699 1091.55C83.6699 1102.95 92.9057 1112.18 104.299 1112.18H168.248C189.922 1112.18 209.467 1103.06 223.258 1088.46C237.049 1103.06 256.594 1112.18 278.268 1112.18H341.529C383.304 1112.18 417.168 1078.32 417.168 1036.54C417.168 1025.15 407.932 1015.91 396.539 1015.91C385.147 1015.91 375.911 1025.15 375.911 1036.54C375.911 1055.53 360.517 1070.92 341.529 1070.92H278.268C259.28 1070.92 243.887 1055.53 243.887 1036.54V897.643C243.887 856.629 210.637 823.38 169.623 823.38V864.637C187.852 864.637 202.629 879.414 202.629 897.643V1036.54C202.629 1055.53 187.236 1070.92 168.248 1070.92H104.299C92.9057 1070.92 83.6699 1080.16 83.6699 1091.55Z" fill="#B4D51E"/>
<path d="M351.47 925.291C370.477 925.291 385.886 909.878 385.886 890.865C385.886 871.852 370.477 856.439 351.47 856.439C332.463 856.439 317.054 871.852 317.054 890.865C317.054 902.272 307.809 911.521 296.405 911.521C285.001 911.521 275.755 902.272 275.755 890.865C275.755 849.036 309.654 815.128 351.47 815.128C393.287 815.128 427.185 849.036 427.185 890.865C427.185 932.694 393.287 966.602 351.47 966.602C340.066 966.602 330.821 957.354 330.821 945.946C330.821 934.539 340.066 925.291 351.47 925.291Z" fill="#E5E0D5"/>
<path d="M302.921 644.795C328.306 644.795 348.716 624.385 348.716 599.411C348.716 574.438 328.306 554.028 302.921 554.028C288.897 554.028 276.384 560.247 267.964 570.091C260.552 578.758 247.503 579.788 238.818 572.392C230.133 564.996 229.1 551.975 236.513 543.31C252.478 524.642 276.326 512.771 302.921 512.771C350.957 512.771 390.064 551.469 390.064 599.411C390.064 647.354 350.957 686.052 302.921 686.052C291.504 686.052 282.247 676.816 282.247 665.423C282.247 654.031 291.504 644.795 302.921 644.795Z" fill="#E5E0D5"/>
<path fill-rule="evenodd" clip-rule="evenodd" d="M630.937 113.953C644.377 100.545 644.377 78.8075 630.937 65.4002C617.497 51.9928 595.706 51.9928 582.266 65.4002C568.826 78.8075 568.826 100.545 582.266 113.953C590.331 121.997 590.331 135.04 582.266 143.084C574.202 151.128 561.127 151.128 553.064 143.084C523.495 113.588 523.495 65.765 553.064 36.2687C582.631 6.77243 630.571 6.77242 660.14 36.2687C689.709 65.765 689.709 113.588 660.14 143.084C652.076 151.128 639.002 151.128 630.937 143.084C622.873 135.04 622.873 121.997 630.937 113.953Z" fill="#463C74"/>
<path fill-rule="evenodd" clip-rule="evenodd" d="M554.015 114.491C562.069 106.435 575.126 106.435 583.18 114.491C591.233 122.547 591.233 135.608 583.18 143.664C575.126 151.72 562.069 151.72 554.015 143.664C545.961 135.608 545.961 122.547 554.015 114.491Z" fill="#FD6234"/>
<path fill-rule="evenodd" clip-rule="evenodd" d="M169.696 864.637C158.307 864.637 149.073 855.401 149.073 844.009C149.073 832.616 158.307 823.38 169.696 823.38C181.085 823.38 190.319 832.616 190.319 844.009C190.319 855.401 181.085 864.637 169.696 864.637Z" fill="#FD6234"/>
<path fill-rule="evenodd" clip-rule="evenodd" d="M110.72 930.944C110.72 911.931 95.3118 896.518 76.3045 896.518C57.2973 896.518 41.8888 911.931 41.8888 930.944C41.8888 949.956 57.2973 965.37 76.3045 965.37C95.3118 965.37 110.72 949.956 110.72 930.944ZM76.3045 855.207C118.121 855.207 152.019 889.115 152.019 930.944C152.019 972.772 118.121 1006.68 76.3045 1006.68C34.4884 1006.68 0.589842 972.772 0.589844 930.944C0.589846 889.115 34.4884 855.207 76.3045 855.207Z" fill="#FFC735"/>
<path d="M139.646 753.287C116.162 753.287 97.1253 772.394 97.1253 795.965V875.814C97.1253 887.219 87.9139 896.465 76.5509 896.465C65.188 896.465 55.9766 887.219 55.9766 875.814V795.965C55.9766 749.585 93.4365 711.985 139.646 711.985V753.287Z" fill="#E5E0D5"/>
<path fill-rule="evenodd" clip-rule="evenodd" d="M76.5992 896.464C65.2096 896.464 55.9766 887.228 55.9766 875.836C55.9766 864.443 65.2096 855.207 76.5992 855.207C87.9889 855.207 97.2219 864.443 97.2219 875.836C97.2219 887.228 87.9889 896.464 76.5992 896.464Z" fill="#FD6234"/>
<path fill-rule="evenodd" clip-rule="evenodd" d="M76.0099 951.278C64.6203 951.278 55.3872 942.042 55.3872 930.649C55.3872 919.257 64.6203 910.021 76.0099 910.021C87.3995 910.021 96.6326 919.257 96.6326 930.649C96.6326 942.042 87.3995 951.278 76.0099 951.278Z" fill="#FD6234"/>
<path fill-rule="evenodd" clip-rule="evenodd" d="M80.1784 539.241C99.2118 538.994 114.441 523.382 114.193 504.37C113.946 485.358 98.3153 470.146 79.282 470.393C67.8619 470.542 58.4838 461.415 58.3353 450.007C58.1867 438.601 67.324 429.233 78.744 429.084C120.617 428.54 155.004 462.006 155.548 503.833C156.093 545.659 122.59 580.005 80.7163 580.549C69.2963 580.698 59.9181 571.571 59.7695 560.163C59.621 548.757 68.7583 539.389 80.1784 539.241Z" fill="#FFC735"/>
<path fill-rule="evenodd" clip-rule="evenodd" d="M180.639 687.261C161.621 687.261 146.204 702.666 146.204 721.668C146.204 740.67 161.621 756.074 180.639 756.074C255.949 756.074 317.001 817.076 317.001 892.324C317.001 903.725 307.75 912.968 296.34 912.968C284.93 912.968 275.679 903.725 275.679 892.324C275.679 839.877 233.128 797.362 180.639 797.362C138.799 797.362 104.882 763.473 104.882 721.668C104.882 679.863 138.799 645.974 180.639 645.974C192.049 645.974 201.3 655.217 201.3 666.618C201.3 678.018 192.049 687.261 180.639 687.261Z" fill="#FFC735"/>
<path fill-rule="evenodd" clip-rule="evenodd" d="M486.053 1036.78C486.053 1017.83 470.644 1002.47 451.637 1002.47C432.63 1002.47 417.221 1017.83 417.221 1036.78C417.221 1048.15 407.976 1057.37 396.572 1057.37C385.168 1057.37 375.922 1048.15 375.922 1036.78C375.922 995.092 409.821 961.297 451.637 961.297C493.454 961.297 527.352 995.092 527.352 1036.78C527.352 1048.15 518.106 1057.37 506.702 1057.37C495.298 1057.37 486.053 1048.15 486.053 1036.78Z" fill="#463C74"/>
<path d="M450.164 669.549C450.164 721.957 492.636 764.441 545.029 764.441C556.418 764.441 565.651 773.677 565.651 785.07C565.651 796.462 556.418 805.698 545.029 805.698C469.858 805.698 408.919 744.742 408.919 669.549C408.919 658.157 418.152 648.92 429.542 648.92C440.931 648.92 450.164 658.157 450.164 669.549Z" fill="#E5E0D5"/>
<path fill-rule="evenodd" clip-rule="evenodd" d="M870.237 52.5379C794.157 52.5379 732.481 114.231 732.481 190.333C732.481 201.748 723.23 211.003 711.818 211.003C700.406 211.003 691.155 201.748 691.155 190.333C691.155 91.4004 771.333 11.1992 870.237 11.1992C881.648 11.1992 890.9 20.4532 890.9 31.8685C890.9 43.2839 881.648 52.5379 870.237 52.5379Z" fill="#FFC735"/>
<path fill-rule="evenodd" clip-rule="evenodd" d="M1067.03 179.743C1067.03 109.794 1010.34 53.089 940.416 53.089C929.015 53.089 919.772 43.8436 919.772 32.4388C919.772 21.0339 929.015 11.7886 940.416 11.7886C1033.15 11.7886 1108.32 86.9846 1108.32 179.743C1108.32 191.148 1099.08 200.394 1087.68 200.394C1076.28 200.394 1067.03 191.148 1067.03 179.743Z" fill="#B4D51E"/>
<path fill-rule="evenodd" clip-rule="evenodd" d="M423.06 571.71C423.06 517.023 378.742 472.692 324.071 472.692C312.682 472.692 303.449 463.456 303.449 452.064C303.449 440.671 312.682 431.435 324.071 431.435C401.521 431.435 464.306 494.238 464.306 571.71C464.306 583.103 455.072 592.339 443.683 592.339C432.294 592.339 423.06 583.103 423.06 571.71Z" fill="#FFC735"/>
<path fill-rule="evenodd" clip-rule="evenodd" d="M59.5135 560.191C59.3654 548.798 68.4776 539.442 79.8662 539.295C91.2549 539.147 100.607 548.262 100.755 559.653C100.903 571.046 91.7912 580.401 80.4026 580.549C69.0141 580.698 59.6617 571.582 59.5135 560.191Z" fill="#FD6234"/>
<path fill-rule="evenodd" clip-rule="evenodd" d="M296.378 912.967C284.989 912.967 275.755 903.731 275.755 892.339C275.755 880.946 284.989 871.71 296.378 871.71C307.767 871.71 317.001 880.946 317.001 892.339C317.001 903.731 307.767 912.967 296.378 912.967Z" fill="#FD6234"/>
<path fill-rule="evenodd" clip-rule="evenodd" d="M396.545 1057.37C385.156 1057.37 375.922 1048.13 375.922 1036.74C375.922 1025.35 385.156 1016.11 396.545 1016.11C407.934 1016.11 417.168 1025.35 417.168 1036.74C417.168 1048.13 407.934 1057.37 396.545 1057.37Z" fill="#FD6234"/>
<path fill-rule="evenodd" clip-rule="evenodd" d="M103.703 1112.18C92.3136 1112.18 83.0806 1102.95 83.0806 1091.55C83.0806 1080.16 92.3136 1070.92 103.703 1070.92C115.093 1070.92 124.326 1080.16 124.326 1091.55C124.326 1102.95 115.093 1112.18 103.703 1112.18Z" fill="#FD6234"/>
<path fill-rule="evenodd" clip-rule="evenodd" d="M296.378 967.781C284.989 967.781 275.755 958.545 275.755 947.152C275.755 935.76 284.989 926.523 296.378 926.523C307.767 926.523 317.001 935.76 317.001 947.152C317.001 958.545 307.767 967.781 296.378 967.781Z" fill="#463C74"/>
<path fill-rule="evenodd" clip-rule="evenodd" d="M296.378 1023.18C284.989 1023.18 275.755 1013.95 275.755 1002.55C275.755 991.162 284.989 981.926 296.378 981.926C307.767 981.926 317.001 991.162 317.001 1002.55C317.001 1013.95 307.767 1023.18 296.378 1023.18Z" fill="#463C74"/>
<path fill-rule="evenodd" clip-rule="evenodd" d="M451.932 1064.44C440.543 1064.44 431.309 1055.2 431.309 1043.81C431.309 1032.42 440.543 1023.18 451.932 1023.18C463.321 1023.18 472.554 1032.42 472.554 1043.81C472.554 1055.2 463.321 1064.44 451.932 1064.44Z" fill="#FD6234"/>
<path fill-rule="evenodd" clip-rule="evenodd" d="M451.932 1119.25C440.543 1119.25 431.309 1110.02 431.309 1098.63C431.309 1087.23 440.543 1078 451.932 1078C463.321 1078 472.554 1087.23 472.554 1098.63C472.554 1110.02 463.321 1119.25 451.932 1119.25Z" fill="#FD6234"/>
<path fill-rule="evenodd" clip-rule="evenodd" d="M429.542 690.178C418.152 690.178 408.919 680.942 408.919 669.549C408.919 658.157 418.152 648.92 429.542 648.92C440.931 648.92 450.164 658.157 450.164 669.549C450.164 680.942 440.931 690.178 429.542 690.178Z" fill="#FD6234"/>
<path fill-rule="evenodd" clip-rule="evenodd" d="M182.069 687.231C170.68 687.231 161.447 677.995 161.447 666.602C161.447 655.21 170.68 645.974 182.069 645.974C193.459 645.974 202.692 655.21 202.692 666.602C202.692 677.995 193.459 687.231 182.069 687.231Z" fill="#FD6234"/>
<path fill-rule="evenodd" clip-rule="evenodd" d="M578.561 662.771C578.561 643.758 563.152 628.345 544.145 628.345C525.136 628.345 509.729 643.758 509.729 662.771C509.729 681.784 525.136 697.197 544.145 697.197C563.152 697.197 578.561 681.784 578.561 662.771ZM544.145 587.034C585.96 587.034 619.86 620.942 619.86 662.771C619.86 704.6 585.96 738.508 544.145 738.508C502.328 738.508 468.43 704.6 468.43 662.771C468.43 620.942 502.328 587.034 544.145 587.034Z" fill="#FFC735"/>
<path fill-rule="evenodd" clip-rule="evenodd" d="M636.357 249.903C636.357 261.295 645.603 270.531 657.01 270.531C676.02 270.531 691.431 285.924 691.431 304.912V442.437C691.431 461.425 676.02 476.818 657.01 476.818C645.603 476.818 636.357 486.054 636.357 497.447C636.357 508.839 645.603 518.076 657.01 518.076C678.709 518.076 698.277 508.959 712.084 494.351C725.89 508.959 745.459 518.076 767.158 518.076H830.493C872.316 518.076 906.22 484.211 906.22 442.437C906.22 431.044 896.973 421.808 885.567 421.808C874.161 421.808 864.914 431.044 864.914 442.437C864.914 461.425 849.503 476.818 830.493 476.818H767.158C748.148 476.818 732.737 461.425 732.737 442.437V304.912C732.737 263.138 698.832 229.274 657.01 229.274C645.603 229.274 636.357 238.51 636.357 249.903Z" fill="#B4D51E"/>
<path d="M677.603 497.579C677.603 486.181 668.358 476.94 656.954 476.94C637.947 476.94 622.539 461.539 622.539 442.542V304.95C622.539 285.952 637.947 270.552 656.954 270.552C668.358 270.552 677.603 261.311 677.603 249.913C677.603 238.515 668.358 229.274 656.954 229.274C615.139 229.274 581.242 263.155 581.242 304.95V442.542C581.242 444.236 581.297 445.916 581.407 447.581C547.041 458.097 522.049 490.055 522.049 527.849V607.653C522.049 619.051 531.294 628.292 542.698 628.292C554.101 628.292 563.346 619.051 563.346 607.653V527.849C563.346 507.977 576.944 491.277 595.346 486.541C609.082 505.719 631.557 518.218 656.954 518.218C668.358 518.218 677.603 508.977 677.603 497.579Z" fill="#E5E0D5"/>
<path fill-rule="evenodd" clip-rule="evenodd" d="M656.685 518.129C637.677 518.129 622.27 533.542 622.27 552.555C622.27 571.568 637.677 586.981 656.685 586.981C675.693 586.981 691.101 571.568 691.101 552.555C691.101 541.148 700.345 531.9 711.751 531.9C723.155 531.9 732.4 541.148 732.4 552.555C732.4 594.384 698.501 628.292 656.685 628.292C614.869 628.292 580.971 594.384 580.971 552.555C580.971 510.726 614.869 476.818 656.685 476.818C668.089 476.818 677.335 486.067 677.335 497.474C677.335 508.881 668.089 518.129 656.685 518.129Z" fill="#463C74"/>
<path d="M1153.75 656.877C1153.75 637.865 1169.15 622.452 1188.16 622.452C1207.17 622.452 1222.58 637.865 1222.58 656.877C1222.58 675.89 1207.17 691.303 1188.16 691.303C1176.76 691.303 1167.51 700.551 1167.51 711.959C1167.51 723.366 1176.76 732.614 1188.16 732.614C1229.98 732.614 1263.88 698.706 1263.88 656.877C1263.88 615.049 1229.98 581.141 1188.16 581.141C1146.34 581.141 1112.45 615.049 1112.45 656.877C1112.45 668.285 1121.69 677.533 1133.1 677.533C1144.5 677.533 1153.75 668.285 1153.75 656.877Z" fill="#E5E0D5"/>
<path fill-rule="evenodd" clip-rule="evenodd" d="M656.98 518.076C645.59 518.076 636.357 508.84 636.357 497.447C636.357 486.055 645.59 476.818 656.98 476.818C668.369 476.818 677.603 486.055 677.603 497.447C677.603 508.84 668.369 518.076 656.98 518.076Z" fill="#FD6234"/>
<path fill-rule="evenodd" clip-rule="evenodd" d="M656.98 270.531C645.59 270.531 636.357 261.295 636.357 249.903C636.357 238.51 645.59 229.274 656.98 229.274C668.369 229.274 677.603 238.51 677.603 249.903C677.603 261.295 668.369 270.531 656.98 270.531Z" fill="#FD6234"/>
<path fill-rule="evenodd" clip-rule="evenodd" d="M542.672 628.292C531.282 628.292 522.049 619.055 522.049 607.663C522.049 596.27 531.282 587.034 542.672 587.034C554.061 587.034 563.294 596.27 563.294 607.663C563.294 619.055 554.061 628.292 542.672 628.292Z" fill="#FD6234"/>
<path fill-rule="evenodd" clip-rule="evenodd" d="M543.85 683.105C532.461 683.105 523.228 673.869 523.228 662.476C523.228 651.084 532.461 641.848 543.85 641.848C555.239 641.848 564.473 651.084 564.473 662.476C564.473 673.869 555.239 683.105 543.85 683.105Z" fill="#463C74"/>
<path fill-rule="evenodd" clip-rule="evenodd" d="M1409.83 479.519C1409.83 521.321 1375.93 555.207 1334.1 555.207H1196.42C1154.6 555.207 1120.7 521.321 1120.7 479.519C1120.7 437.716 1154.6 403.83 1196.42 403.83H1240.48V360.481C1240.48 318.68 1274.38 284.792 1316.21 284.792H1453.89C1472.9 284.792 1488.31 269.389 1488.31 250.388V187.085C1488.31 168.084 1472.9 152.681 1453.89 152.681C1442.49 152.681 1433.24 143.438 1433.24 132.038C1433.24 120.638 1442.49 111.396 1453.89 111.396C1495.72 111.396 1529.61 145.283 1529.61 187.085V250.388C1529.61 272.076 1520.49 291.636 1505.86 305.434C1520.49 319.235 1529.61 338.793 1529.61 360.481V422.408C1529.61 433.808 1520.36 443.05 1508.96 443.05C1497.56 443.05 1488.31 433.808 1488.31 422.408V360.481C1488.31 341.48 1472.9 326.077 1453.89 326.077H1316.21C1297.2 326.077 1281.78 341.48 1281.78 360.481V403.83H1334.1C1375.93 403.83 1409.83 437.716 1409.83 479.519ZM1196.42 445.115C1177.41 445.115 1162 460.518 1162 479.519C1162 498.519 1177.41 513.923 1196.42 513.923H1334.1C1353.11 513.923 1368.53 498.519 1368.53 479.519C1368.53 460.518 1353.11 445.115 1334.1 445.115H1196.42Z" fill="#B4D51E"/>
<path fill-rule="evenodd" clip-rule="evenodd" d="M1100.75 281.289C1124.24 290.841 1150.84 279.635 1160.28 256.526C1169.71 233.417 1158.54 206.849 1135.05 197.297C1122.08 192.02 1108.15 193.065 1096.64 199.006C1086.51 204.237 1074.04 200.279 1068.8 190.167C1063.56 180.055 1067.53 167.619 1077.66 162.388C1099.49 151.122 1126.04 149.11 1150.65 159.119C1195.09 177.194 1216.65 227.722 1198.53 272.085C1180.41 316.45 1129.61 337.543 1085.16 319.468C1074.6 315.171 1069.52 303.14 1073.83 292.599C1078.13 282.056 1090.19 276.993 1100.75 281.289Z" fill="#FFC735"/>
<path fill-rule="evenodd" clip-rule="evenodd" d="M1409.41 483.891C1409.41 536.299 1451.88 578.783 1504.28 578.783C1515.66 578.783 1524.9 588.019 1524.9 599.412C1524.9 610.804 1515.66 620.04 1504.28 620.04C1429.1 620.04 1368.17 559.084 1368.17 483.891C1368.17 472.498 1377.41 463.262 1388.79 463.262C1400.17 463.262 1409.41 472.498 1409.41 483.891Z" fill="#FFC735"/>
<path fill-rule="evenodd" clip-rule="evenodd" d="M1388.79 503.341C1377.41 503.341 1368.17 494.105 1368.17 482.712C1368.17 471.32 1377.41 462.083 1388.79 462.083C1400.17 462.083 1409.41 471.32 1409.41 482.712C1409.41 494.105 1400.17 503.341 1388.79 503.341Z" fill="#FD6234"/>
<path fill-rule="evenodd" clip-rule="evenodd" d="M636.304 400.829C636.304 381.88 620.895 366.518 601.888 366.518C582.88 366.518 567.472 381.88 567.472 400.829C567.472 412.198 558.227 421.415 546.823 421.415C535.417 421.415 526.173 412.198 526.173 400.829C526.173 359.14 560.071 325.345 601.888 325.345C643.703 325.345 677.603 359.14 677.603 400.829C677.603 412.198 668.357 421.415 656.953 421.415C645.548 421.415 636.304 412.198 636.304 400.829Z" fill="#FFC735"/>
<path fill-rule="evenodd" clip-rule="evenodd" d="M975.105 443.854C975.105 424.905 959.696 409.543 940.689 409.543C921.682 409.543 906.274 424.905 906.274 443.854C906.274 455.224 897.028 464.441 885.624 464.441C874.22 464.441 864.975 455.224 864.975 443.854C864.975 402.165 898.873 368.37 940.689 368.37C982.506 368.37 1016.4 402.165 1016.4 443.854C1016.4 455.224 1007.16 464.441 995.755 464.441C984.351 464.441 975.105 455.224 975.105 443.854Z" fill="#463C74"/>
<path d="M456.056 1158.15C508.449 1158.15 550.921 1115.67 550.921 1063.26C550.921 1051.87 560.154 1042.63 571.543 1042.63C582.932 1042.63 592.166 1051.87 592.166 1063.26C592.166 1138.46 531.227 1199.41 456.056 1199.41C444.667 1199.41 435.434 1190.18 435.434 1178.78C435.434 1167.39 444.667 1158.15 456.056 1158.15Z" fill="#E5E0D5"/>
<path fill-rule="evenodd" clip-rule="evenodd" d="M665.253 670.68C726.067 670.68 775.366 621.367 775.366 560.535C775.366 549.13 784.61 539.883 796.012 539.883C807.414 539.883 816.658 549.13 816.658 560.535C816.658 644.178 748.871 711.985 665.253 711.985C653.85 711.985 644.606 702.738 644.606 691.333C644.606 679.927 653.85 670.68 665.253 670.68Z" fill="#B4D51E"/>
<path fill-rule="evenodd" clip-rule="evenodd" d="M656.98 421.416C645.59 421.416 636.357 412.179 636.357 400.787C636.357 389.394 645.59 380.158 656.98 380.158C668.369 380.158 677.603 389.394 677.603 400.787C677.603 412.179 668.369 421.416 656.98 421.416Z" fill="#FD6234"/>
<path fill-rule="evenodd" clip-rule="evenodd" d="M801.339 291.16C789.95 291.16 780.716 281.924 780.716 270.532C780.716 259.139 789.95 249.903 801.339 249.903C812.728 249.903 821.962 259.139 821.962 270.532C821.962 281.924 812.728 291.16 801.339 291.16Z" fill="#FD6234"/>
<path fill-rule="evenodd" clip-rule="evenodd" d="M1114.8 713.164C1114.8 724.556 1124.04 733.793 1135.43 733.793C1146.82 733.793 1156.05 724.556 1156.05 713.164C1156.05 701.771 1146.82 692.535 1135.43 692.535C1124.04 692.535 1114.8 701.771 1114.8 713.164Z" fill="#FD6234"/>
<path fill-rule="evenodd" clip-rule="evenodd" d="M1060.01 713.164C1060.01 724.556 1069.24 733.793 1080.63 733.793C1092.02 733.793 1101.25 724.556 1101.25 713.164C1101.25 701.771 1092.02 692.535 1080.63 692.535C1069.24 692.535 1060.01 701.771 1060.01 713.164Z" fill="#FD6234"/>
<g style="mix-blend-mode:multiply">
<path fill-rule="evenodd" clip-rule="evenodd" d="M1464.51 1199.41C1422.68 1199.41 1388.79 1165.55 1388.79 1123.77V986.248C1388.79 944.474 1422.68 910.61 1464.51 910.61C1506.33 910.61 1540.22 944.474 1540.22 986.248V1123.77C1540.22 1165.55 1506.33 1199.41 1464.51 1199.41ZM1498.92 1123.77V986.248C1498.92 967.26 1483.52 951.867 1464.51 951.867C1445.49 951.867 1430.09 967.26 1430.09 986.248V1123.77C1430.09 1142.76 1445.49 1158.15 1464.51 1158.15C1483.52 1158.15 1498.92 1142.76 1498.92 1123.77Z" fill="#B4D51E"/>
</g>
<path d="M1485.54 931.268C1485.54 889.553 1519.49 855.737 1561.37 855.737C1572.79 855.737 1582.06 846.515 1582.06 835.138C1582.06 823.762 1572.79 814.539 1561.37 814.539C1496.65 814.539 1444.18 866.801 1444.18 931.268C1444.18 942.644 1453.44 951.867 1464.86 951.867C1476.28 951.867 1485.54 942.644 1485.54 931.268Z" fill="#E5E0D5"/>
<path fill-rule="evenodd" clip-rule="evenodd" d="M1485.42 931.239C1485.42 919.845 1476.18 910.61 1464.8 910.61C1453.42 910.61 1444.18 919.845 1444.18 931.239C1444.18 942.631 1453.42 951.867 1464.8 951.867C1476.18 951.867 1485.42 942.631 1485.42 931.239Z" fill="#FD6234"/>
<path fill-rule="evenodd" clip-rule="evenodd" d="M1280.08 1089.25C1261.07 1089.25 1245.66 1104.66 1245.66 1123.67C1245.66 1142.69 1261.07 1158.1 1280.08 1158.1C1299.09 1158.1 1314.5 1142.69 1314.5 1123.67C1314.5 1104.66 1299.09 1089.25 1280.08 1089.25ZM1204.37 1123.67C1204.37 1081.85 1238.26 1047.94 1280.08 1047.94C1321.9 1047.94 1355.79 1081.85 1355.79 1123.67C1355.79 1165.5 1321.9 1199.41 1280.08 1199.41C1238.26 1199.41 1204.37 1165.5 1204.37 1123.67Z" fill="#FFC735"/>
<path d="M867.342 990.178C878.737 990.178 887.975 999.437 887.975 1010.86C887.975 1029.9 903.371 1045.33 922.363 1045.33H1059.91C1078.91 1045.33 1094.3 1029.9 1094.3 1010.86C1094.3 999.437 1103.54 990.178 1114.94 990.178C1126.33 990.178 1135.57 999.437 1135.57 1010.86C1135.57 1036.24 1123.13 1058.71 1104.02 1072.48C1108.87 1090.27 1125.2 1103.24 1145.2 1103.24H1224.98C1236.37 1103.24 1245.61 1112.5 1245.61 1123.92C1245.61 1135.34 1236.37 1144.6 1224.98 1144.6H1145.2C1107.88 1144.6 1075.82 1120.62 1065.1 1086.52C1063.39 1086.63 1061.66 1086.69 1059.91 1086.69H922.363C880.58 1086.69 846.709 1052.74 846.709 1010.86C846.709 999.437 855.947 990.178 867.342 990.178Z" fill="#E5E0D5"/>
<path fill-rule="evenodd" clip-rule="evenodd" d="M697.931 743.812C739.748 743.812 773.646 777.677 773.646 819.451V956.976C773.646 998.75 739.748 1032.61 697.931 1032.61C656.114 1032.61 622.216 998.75 622.216 956.976V819.451C622.216 777.677 656.114 743.812 697.931 743.812ZM732.347 819.451C732.347 800.463 716.938 785.07 697.931 785.07C678.924 785.07 663.515 800.463 663.515 819.451V956.976C663.515 975.964 678.924 991.357 697.931 991.357C716.938 991.357 732.347 975.964 732.347 956.976V819.451Z" fill="#B4D51E"/>
<path fill-rule="evenodd" clip-rule="evenodd" d="M867.332 1031.44C878.721 1031.44 887.954 1022.19 887.954 1010.78C887.954 991.761 903.343 976.345 922.325 976.345V976.345H1059.81C1078.79 976.345 1094.18 991.761 1094.18 1010.78C1094.18 1022.19 1103.41 1031.44 1114.8 1031.44C1126.19 1031.44 1135.43 1022.19 1135.43 1010.78C1135.43 989.071 1126.31 969.497 1111.71 955.686C1126.31 941.875 1135.43 922.302 1135.43 900.596V837.243C1135.43 795.408 1101.57 761.494 1059.81 761.494C1048.42 761.494 1039.19 770.744 1039.19 782.153C1039.19 793.562 1048.42 802.812 1059.81 802.812C1078.79 802.812 1094.18 818.227 1094.18 837.243V900.596C1094.18 919.612 1078.79 935.028 1059.81 935.028H922.327C922.325 935.028 922.327 935.028 922.327 935.028C880.565 935.028 846.709 968.941 846.709 1010.78C846.709 1022.19 855.942 1031.44 867.332 1031.44Z" fill="#B4D51E"/>
<path fill-rule="evenodd" clip-rule="evenodd" d="M1135.48 1010.51C1135.48 1029.52 1150.89 1044.94 1169.9 1044.94C1188.9 1044.94 1204.31 1029.52 1204.31 1010.51C1204.31 991.499 1188.9 976.086 1169.9 976.086C1158.49 976.086 1149.25 966.838 1149.25 955.43C1149.25 944.023 1158.49 934.775 1169.9 934.775C1211.71 934.775 1245.61 968.683 1245.61 1010.51C1245.61 1052.34 1211.71 1086.25 1169.9 1086.25C1128.08 1086.25 1094.18 1052.34 1094.18 1010.51C1094.18 999.104 1103.43 989.856 1114.83 989.856C1126.23 989.856 1135.48 999.104 1135.48 1010.51Z" fill="#463C74"/>
<path fill-rule="evenodd" clip-rule="evenodd" d="M959.785 841.356C959.785 822.344 944.377 806.931 925.369 806.931C906.362 806.931 890.954 822.344 890.954 841.356C890.954 860.369 906.362 875.782 925.369 875.782C936.773 875.782 946.019 885.03 946.019 896.438C946.019 907.845 936.773 917.093 925.369 917.093C883.553 917.093 849.655 883.185 849.655 841.356C849.655 799.528 883.553 765.62 925.369 765.62C967.186 765.62 1001.08 799.528 1001.08 841.356C1001.08 852.764 991.839 862.012 980.435 862.012C969.031 862.012 959.785 852.764 959.785 841.356Z" fill="#463C74"/>
<path fill-rule="evenodd" clip-rule="evenodd" d="M677.603 952.985C677.603 927.593 657.199 907.176 632.233 907.176C607.267 907.176 586.863 927.593 586.863 952.985C586.863 967.013 593.08 979.529 602.921 987.952C611.585 995.366 612.615 1008.42 605.221 1017.11C597.827 1025.79 584.81 1026.83 576.147 1019.41C557.485 1003.44 545.618 979.587 545.618 952.985C545.618 904.934 584.304 865.816 632.233 865.816C680.161 865.816 718.848 904.934 718.848 952.985C718.848 964.405 709.615 973.665 698.225 973.665C686.836 973.665 677.603 964.405 677.603 952.985Z" fill="#FD6234"/>
<path fill-rule="evenodd" clip-rule="evenodd" d="M1135.43 1010.22C1135.43 1021.61 1126.19 1030.85 1114.8 1030.85C1103.41 1030.85 1094.18 1021.61 1094.18 1010.22C1094.18 998.825 1103.41 989.588 1114.8 989.588C1126.19 989.588 1135.43 998.825 1135.43 1010.22Z" fill="#FD6234"/>
<path fill-rule="evenodd" clip-rule="evenodd" d="M887.954 1010.81C887.954 1022.2 878.721 1031.44 867.332 1031.44C855.942 1031.44 846.709 1022.2 846.709 1010.81C846.709 999.414 855.942 990.178 867.332 990.178C878.721 990.178 887.954 999.414 887.954 1010.81Z" fill="#FD6234"/>
<path fill-rule="evenodd" clip-rule="evenodd" d="M1245.61 1123.97C1245.61 1135.36 1236.38 1144.6 1224.99 1144.6C1213.6 1144.6 1204.37 1135.36 1204.37 1123.97C1204.37 1112.58 1213.6 1103.34 1224.99 1103.34C1236.38 1103.34 1245.61 1112.58 1245.61 1123.97Z" fill="#FD6234"/>
<path fill-rule="evenodd" clip-rule="evenodd" d="M1301 1123.38C1301 1134.77 1291.76 1144.01 1280.37 1144.01C1268.98 1144.01 1259.75 1134.77 1259.75 1123.38C1259.75 1111.99 1268.98 1102.75 1280.37 1102.75C1291.76 1102.75 1301 1111.99 1301 1123.38Z" fill="#FD6234"/>
<path fill-rule="evenodd" clip-rule="evenodd" d="M1018.8 1031.49C999.859 1031.49 984.502 1046.9 984.502 1065.91C984.502 1084.93 999.859 1100.34 1018.8 1100.34C1030.17 1100.34 1039.38 1109.59 1039.38 1121C1039.38 1132.4 1030.17 1141.65 1018.8 1141.65C977.126 1141.65 943.341 1107.74 943.341 1065.91C943.341 1024.09 977.126 990.178 1018.8 990.178C1030.17 990.178 1039.38 999.426 1039.38 1010.83C1039.38 1022.24 1030.17 1031.49 1018.8 1031.49Z" fill="#FFC735"/>
<path fill-rule="evenodd" clip-rule="evenodd" d="M1061.15 662.476C1034.91 662.476 1012.94 684.255 1012.94 711.985C1012.94 739.715 1034.91 761.494 1061.15 761.494C1072.56 761.494 1081.81 770.73 1081.81 782.122C1081.81 793.515 1072.56 802.751 1061.15 802.751C1011.32 802.751 971.623 761.726 971.623 711.985C971.623 662.244 1011.32 621.219 1061.15 621.219C1072.56 621.219 1081.81 630.455 1081.81 641.847C1081.81 653.24 1072.56 662.476 1061.15 662.476Z" fill="#FFC735"/>
<path fill-rule="evenodd" clip-rule="evenodd" d="M925.06 917.17C872.629 917.17 830.126 959.733 830.126 1012.24C830.126 1054.09 796.246 1088.02 754.453 1088.02C712.66 1088.02 678.781 1054.09 678.781 1012.24C678.781 1000.82 688.022 991.571 699.419 991.571C710.817 991.571 720.057 1000.82 720.057 1012.24C720.057 1031.26 735.457 1046.68 754.453 1046.68C773.45 1046.68 788.85 1031.26 788.85 1012.24C788.85 936.905 849.833 875.836 925.06 875.836C936.457 875.836 945.698 885.089 945.698 896.503C945.698 907.917 936.457 917.17 925.06 917.17Z" fill="#FFC735"/>
<path d="M702.35 743.812C788.91 743.812 859.083 673.62 859.083 587.034C859.083 575.642 868.316 566.406 879.705 566.406C891.094 566.406 900.328 575.642 900.328 587.034C900.328 696.406 811.69 785.07 702.35 785.07C690.961 785.07 681.728 775.834 681.728 764.441C681.728 753.049 690.961 743.812 702.35 743.812Z" fill="#E5E0D5"/>
<path d="M1310.38 51.3609C1236.58 51.3609 1176.75 111.206 1176.75 185.028C1176.75 196.444 1167.5 205.698 1156.09 205.698C1144.68 205.698 1135.43 196.444 1135.43 185.028C1135.43 88.374 1213.76 10.0205 1310.38 10.0205C1321.8 10.0205 1331.05 19.2748 1331.05 30.6907C1331.05 42.1066 1321.8 51.3609 1310.38 51.3609Z" fill="#E5E0D5"/>
<path fill-rule="evenodd" clip-rule="evenodd" d="M1274.48 995.482C1274.48 943.074 1232.01 900.59 1179.62 900.59C1168.23 900.59 1159 891.354 1159 879.962C1159 868.569 1168.23 859.333 1179.62 859.333C1254.79 859.333 1315.73 920.289 1315.73 995.482C1315.73 1006.87 1306.49 1016.11 1295.1 1016.11C1283.72 1016.11 1274.48 1006.87 1274.48 995.482Z" fill="#FD6234"/>
<path fill-rule="evenodd" clip-rule="evenodd" d="M43.0134 1063.26C43.0134 1115.67 85.4854 1158.15 137.878 1158.15C149.267 1158.15 158.5 1167.39 158.5 1178.78C158.5 1190.18 149.267 1199.41 137.878 1199.41C62.7064 1199.41 1.76806 1138.46 1.76807 1063.26C1.76807 1051.87 11.0011 1042.63 22.3907 1042.63C33.7802 1042.63 43.0134 1051.87 43.0134 1063.26Z" fill="#B4D51E"/>
<path fill-rule="evenodd" clip-rule="evenodd" d="M586.895 853.964C552.022 853.964 523.752 882.242 523.752 917.126C523.752 928.5 514.533 937.722 503.162 937.722C491.79 937.722 482.571 928.5 482.571 917.126C482.571 859.492 529.278 812.771 586.895 812.771C598.267 812.771 607.486 821.993 607.486 833.367C607.486 844.742 598.267 853.964 586.895 853.964Z" fill="#FFC735"/>
<path fill-rule="evenodd" clip-rule="evenodd" d="M1039.38 1010.81C1039.38 1022.2 1030.15 1031.44 1018.76 1031.44C1007.37 1031.44 998.138 1022.2 998.138 1010.81C998.138 999.414 1007.37 990.178 1018.76 990.178C1030.15 990.178 1039.38 999.414 1039.38 1010.81Z" fill="#FD6234"/>
<path fill-rule="evenodd" clip-rule="evenodd" d="M946.287 896.465C946.287 907.857 937.053 917.093 925.664 917.093C914.275 917.093 905.042 907.857 905.042 896.465C905.042 885.072 914.275 875.836 925.664 875.836C937.053 875.836 946.287 885.072 946.287 896.465Z" fill="#FD6234"/>
<path fill-rule="evenodd" clip-rule="evenodd" d="M945.698 727.309C945.698 738.702 936.464 747.938 925.075 747.938C913.686 747.938 904.452 738.702 904.452 727.309C904.452 715.917 913.686 706.681 925.075 706.681C936.464 706.681 945.698 715.917 945.698 727.309Z" fill="#FD6234"/>
<path fill-rule="evenodd" clip-rule="evenodd" d="M945.698 671.907C945.698 683.299 936.464 692.535 925.075 692.535C913.686 692.535 904.452 683.299 904.452 671.907C904.452 660.514 913.686 651.278 925.075 651.278C936.464 651.278 945.698 660.514 945.698 671.907Z" fill="#FD6234"/>
<path fill-rule="evenodd" clip-rule="evenodd" d="M906.22 444.402C906.22 455.794 896.987 465.03 885.597 465.03C874.208 465.03 864.975 455.794 864.975 444.402C864.975 433.009 874.208 423.773 885.597 423.773C896.987 423.773 906.22 433.009 906.22 444.402Z" fill="#FD6234"/>
<path fill-rule="evenodd" clip-rule="evenodd" d="M1081.81 782.123C1081.81 793.515 1072.57 802.752 1061.18 802.752C1049.8 802.752 1040.56 793.515 1040.56 782.123C1040.56 770.73 1049.8 761.494 1061.18 761.494C1072.57 761.494 1081.81 770.73 1081.81 782.123Z" fill="#FD6234"/>
<path fill-rule="evenodd" clip-rule="evenodd" d="M433.961 124.309C414.954 124.309 399.545 108.896 399.545 89.8832C399.545 70.8704 414.954 55.4574 433.961 55.4574C452.968 55.4574 468.377 70.8704 468.377 89.8832C468.377 108.896 452.968 124.309 433.961 124.309ZM358.246 89.8832C358.246 131.712 392.144 165.62 433.961 165.62C475.777 165.62 509.675 131.712 509.675 89.8832C509.675 48.0551 475.777 14.1465 433.961 14.1465C392.144 14.1465 358.246 48.0549 358.246 89.8832Z" fill="#FFC735"/>
<path fill-rule="evenodd" clip-rule="evenodd" d="M21.2125 182.123C32.6022 182.123 41.8352 191.369 41.8352 202.775C41.8352 221.785 57.2237 237.195 76.2063 237.195H213.691C232.673 237.195 248.062 221.785 248.062 202.775C248.062 191.369 257.295 182.123 268.685 182.123C280.074 182.123 289.307 191.369 289.307 202.775C289.307 244.597 255.453 278.5 213.691 278.5H78.9817C78.9732 278.5 78.9645 278.5 78.956 278.5C59.9734 278.5 44.5849 293.91 44.5849 312.92V450.602C44.5849 469.612 59.9734 485.022 78.956 485.022C90.3456 485.022 99.5787 494.269 99.5787 505.675C99.5787 517.08 90.3456 526.327 78.956 526.327C37.1941 526.327 3.33952 492.424 3.33952 450.602V312.92C3.33952 291.893 11.8976 272.867 25.7158 259.146C10.2921 245.283 0.589841 225.163 0.589844 202.775C0.589845 191.369 9.82293 182.123 21.2125 182.123Z" fill="#B4D51E"/>
<path d="M219.112 127.5C230.005 93.8728 261.663 69.5488 299.021 69.5488H378.847C390.248 69.5488 399.491 78.763 399.491 90.1293C399.491 101.495 390.248 110.71 378.847 110.71H299.021C279.506 110.71 263.052 123.77 257.973 141.6C276.957 155.313 289.307 177.613 289.307 202.793C289.307 214.163 280.074 223.38 268.685 223.38C257.295 223.38 248.062 214.163 248.062 202.793C248.062 183.844 232.673 168.482 213.691 168.482H76.2063C57.2237 168.482 41.8352 183.844 41.8352 202.793C41.8352 214.163 32.6021 223.38 21.2125 223.38C9.82293 223.38 0.589844 214.163 0.589844 202.793C0.589844 161.104 34.4444 127.309 76.2063 127.309H213.691C215.514 127.309 217.321 127.374 219.112 127.5H219.112Z" fill="#E5E0D5"/>
<path fill-rule="evenodd" clip-rule="evenodd" d="M289.361 203.046C289.361 184.034 304.77 168.621 323.777 168.621C342.784 168.621 358.192 184.034 358.192 203.046C358.192 222.059 342.784 237.472 323.777 237.472C312.373 237.472 303.127 246.72 303.127 258.128C303.127 269.535 312.373 278.783 323.777 278.783C365.593 278.783 399.491 244.875 399.491 203.046C399.491 161.218 365.593 127.31 323.777 127.31C281.96 127.31 248.062 161.218 248.062 203.046C248.062 214.454 257.307 223.702 268.711 223.702C280.115 223.702 289.361 214.454 289.361 203.046Z" fill="#463C74"/>
<path fill-rule="evenodd" clip-rule="evenodd" d="M289.307 203.341C289.307 191.948 280.074 182.712 268.685 182.712C257.295 182.712 248.062 191.948 248.062 203.341C248.062 214.733 257.295 223.969 268.685 223.969C280.074 223.969 289.307 214.733 289.307 203.341Z" fill="#FD6234"/>
<path fill-rule="evenodd" clip-rule="evenodd" d="M41.8352 202.751C41.8352 191.359 32.6017 182.123 21.2125 182.123C9.8233 182.123 0.589844 191.359 0.589844 202.751C0.589844 214.144 9.8233 223.38 21.2125 223.38C32.6017 223.38 41.8352 214.144 41.8352 202.751Z" fill="#463C74"/>
<path fill-rule="evenodd" clip-rule="evenodd" d="M268.685 328.292C268.685 316.899 259.451 307.663 248.062 307.663C236.673 307.663 227.439 316.899 227.439 328.292C227.439 339.684 236.673 348.92 248.062 348.92C259.451 348.92 268.685 339.684 268.685 328.292Z" fill="#463C74"/>
<path fill-rule="evenodd" clip-rule="evenodd" d="M268.685 383.105C268.685 371.713 259.451 362.477 248.062 362.477C236.673 362.477 227.439 371.713 227.439 383.105C227.439 394.498 236.673 403.734 248.062 403.734C259.451 403.734 268.685 394.498 268.685 383.105Z" fill="#463C74"/>
<path fill-rule="evenodd" clip-rule="evenodd" d="M447.807 406.68C447.807 395.288 438.574 386.052 427.185 386.052C415.795 386.052 406.562 395.288 406.562 406.68C406.562 418.073 415.795 427.309 427.185 427.309C438.574 427.309 447.807 418.073 447.807 406.68Z" fill="#463C74"/>
<path fill-rule="evenodd" clip-rule="evenodd" d="M504.372 403.734C504.372 392.341 495.139 383.105 483.75 383.105C472.36 383.105 463.127 392.341 463.127 403.734C463.127 415.126 472.36 424.362 483.75 424.362C495.139 424.362 504.372 415.126 504.372 403.734Z" fill="#463C74"/>
<path fill-rule="evenodd" clip-rule="evenodd" d="M504.372 461.494C504.372 450.101 495.139 440.865 483.75 440.865C472.36 440.865 463.127 450.101 463.127 461.494C463.127 472.886 472.36 482.123 483.75 482.123C495.139 482.123 504.372 472.886 504.372 461.494Z" fill="#463C74"/>
<path fill-rule="evenodd" clip-rule="evenodd" d="M223.315 1179.96C223.315 1168.57 214.081 1159.33 202.692 1159.33C191.303 1159.33 182.069 1168.57 182.069 1179.96C182.069 1191.35 191.303 1200.59 202.692 1200.59C214.081 1200.59 223.315 1191.35 223.315 1179.96Z" fill="#463C74"/>
<path fill-rule="evenodd" clip-rule="evenodd" d="M285.183 1179.96C285.183 1168.57 275.949 1159.33 264.56 1159.33C253.171 1159.33 243.938 1168.57 243.938 1179.96C243.938 1191.35 253.171 1200.59 264.56 1200.59C275.949 1200.59 285.183 1191.35 285.183 1179.96Z" fill="#FD6234"/>
<path fill-rule="evenodd" clip-rule="evenodd" d="M471.376 1178.78C471.376 1167.39 462.143 1158.15 450.754 1158.15C439.364 1158.15 430.131 1167.39 430.131 1178.78C430.131 1190.18 439.364 1199.41 450.754 1199.41C462.143 1199.41 471.376 1190.18 471.376 1178.78Z" fill="#463C74"/>
<path fill-rule="evenodd" clip-rule="evenodd" d="M399.491 90.1775C399.491 78.7847 390.258 69.5488 378.869 69.5488C367.48 69.5488 358.246 78.7847 358.246 90.1775C358.246 101.57 367.48 110.806 378.869 110.806C390.258 110.806 399.491 101.57 399.491 90.1775Z" fill="#FD6234"/>
<path fill-rule="evenodd" clip-rule="evenodd" d="M454.878 90.1775C454.878 78.7846 445.645 69.5488 434.255 69.5488C422.866 69.5488 413.633 78.7846 413.633 90.1775C413.633 101.57 422.866 110.806 434.255 110.806C445.645 110.806 454.878 101.57 454.878 90.1775Z" fill="#FD6234"/>
<path fill-rule="evenodd" clip-rule="evenodd" d="M199.788 182.069C180.844 182.069 165.487 166.656 165.487 147.643C165.487 128.631 180.844 113.218 199.788 113.218C211.154 113.218 220.368 103.97 220.368 92.5622C220.368 81.1545 211.154 71.9067 199.788 71.9067C158.111 71.9067 124.326 105.815 124.326 147.643C124.326 189.472 158.111 223.38 199.788 223.38C211.154 223.38 220.368 214.132 220.368 202.725C220.368 191.317 211.154 182.069 199.788 182.069Z" fill="#FFC735"/>
<path fill-rule="evenodd" clip-rule="evenodd" d="M97.2218 390.178C149.614 390.178 192.086 432.662 192.086 485.07C192.086 496.462 201.32 505.698 212.709 505.698C224.098 505.698 233.331 496.462 233.331 485.07C233.331 409.877 172.393 348.92 97.2218 348.92C85.8322 348.92 76.5991 358.157 76.5991 369.549C76.5991 380.942 85.8322 390.178 97.2218 390.178Z" fill="#FD6234"/>
<path fill-rule="evenodd" clip-rule="evenodd" d="M100.757 505.699C100.757 494.306 91.524 485.07 80.1344 485.07C68.7448 485.07 59.5117 494.306 59.5117 505.699C59.5117 517.091 68.7448 526.327 80.1344 526.327C91.524 526.327 100.757 517.091 100.757 505.699Z" fill="#FD6234"/>
<path fill-rule="evenodd" clip-rule="evenodd" d="M1001.08 896.465C1001.08 907.857 991.851 917.093 980.462 917.093C969.072 917.093 959.839 907.857 959.839 896.465C959.839 885.072 969.072 875.836 980.462 875.836C991.851 875.836 1001.08 885.072 1001.08 896.465Z" fill="#463C74"/>
<path fill-rule="evenodd" clip-rule="evenodd" d="M1055.88 896.465C1055.88 907.857 1046.65 917.093 1035.26 917.093C1023.87 917.093 1014.64 907.857 1014.64 896.465C1014.64 885.072 1023.87 875.836 1035.26 875.836C1046.65 875.836 1055.88 885.072 1055.88 896.465Z" fill="#463C74"/>
<path fill-rule="evenodd" clip-rule="evenodd" d="M718.848 764.441C718.848 775.834 709.615 785.07 698.226 785.07C686.836 785.07 677.603 775.834 677.603 764.441C677.603 753.049 686.836 743.812 698.226 743.812C709.615 743.812 718.848 753.049 718.848 764.441Z" fill="#FD6234"/>
<path fill-rule="evenodd" clip-rule="evenodd" d="M720.027 1011.99C720.027 1023.38 710.793 1032.61 699.404 1032.61C688.015 1032.61 678.781 1023.38 678.781 1011.99C678.781 1000.59 688.015 991.356 699.404 991.356C710.793 991.356 720.027 1000.59 720.027 1011.99Z" fill="#FD6234"/>
<path fill-rule="evenodd" clip-rule="evenodd" d="M949.891 197.447C926.584 197.447 907.467 216.471 907.467 240.214C907.467 263.956 926.584 282.98 949.891 282.98C1034.58 282.98 1103.02 351.945 1103.02 436.74C1103.02 448.132 1093.77 457.368 1082.36 457.368C1070.95 457.368 1061.71 448.132 1061.71 436.74C1061.71 374.484 1011.52 324.238 949.891 324.238C903.521 324.238 866.153 286.495 866.153 240.214C866.153 193.932 903.521 156.189 949.891 156.189C961.3 156.189 970.547 165.426 970.547 176.818C970.547 188.211 961.3 197.447 949.891 197.447Z" fill="#FFC735"/>
<path fill-rule="evenodd" clip-rule="evenodd" d="M1061.18 436.786C1061.18 499.409 1011.13 549.81 949.822 549.81C938.433 549.81 929.2 559.067 929.2 570.485C929.2 581.903 938.433 591.16 949.822 591.16C1034.31 591.16 1102.43 521.842 1102.43 436.786C1102.43 425.368 1093.2 416.111 1081.81 416.111C1070.42 416.111 1061.18 425.368 1061.18 436.786Z" fill="#FD6234"/>
<path fill-rule="evenodd" clip-rule="evenodd" d="M1081.81 457.368C1070.42 457.368 1061.18 448.132 1061.18 436.74C1061.18 425.347 1070.42 416.111 1081.81 416.111C1093.2 416.111 1102.43 425.347 1102.43 436.74C1102.43 448.132 1093.2 457.368 1081.81 457.368Z" fill="#463C74"/>
<path fill-rule="evenodd" clip-rule="evenodd" d="M801.339 311.789C812.728 311.789 821.962 321.039 821.962 332.448V421.974C821.962 433.383 812.728 442.633 801.339 442.633C789.95 442.633 780.716 433.383 780.716 421.974V332.448C780.716 321.039 789.95 311.789 801.339 311.789Z" fill="#B4D51E"/>
<path fill-rule="evenodd" clip-rule="evenodd" d="M463.087 195.699C463.087 272.486 400.857 334.734 324.092 334.734C312.691 334.734 303.449 343.98 303.449 355.383C303.449 366.787 312.691 376.032 324.092 376.032C423.658 376.032 504.373 295.294 504.373 195.699C504.373 184.295 495.13 175.05 483.73 175.05C472.329 175.05 463.087 184.295 463.087 195.699Z" fill="#B4D51E"/>
<path d="M1142.5 239.883C1142.5 251.276 1133.25 260.512 1121.84 260.512H946.914C935.504 260.512 926.253 251.276 926.253 239.883C926.253 228.491 935.504 219.254 946.914 219.254H1121.84C1133.25 219.254 1142.5 228.491 1142.5 239.883Z" fill="#E5E0D5"/>
<path fill-rule="evenodd" clip-rule="evenodd" d="M504.372 195.678C504.372 184.286 495.139 175.05 483.75 175.05C472.36 175.05 463.127 184.286 463.127 195.678C463.127 207.071 472.36 216.307 483.75 216.307C495.139 216.307 504.372 207.071 504.372 195.678Z" fill="#FD6234"/>
<path fill-rule="evenodd" clip-rule="evenodd" d="M1101.1 195.531C1093.05 203.587 1079.99 203.587 1071.94 195.531C1063.88 187.474 1063.88 174.412 1071.94 166.358C1079.99 158.301 1093.05 158.301 1101.1 166.358C1109.16 174.412 1109.16 187.474 1101.1 195.531Z" fill="#463C74"/>
<path fill-rule="evenodd" clip-rule="evenodd" d="M960.869 133.644C952.815 141.701 939.757 141.701 931.704 133.644C923.651 125.588 923.651 112.527 931.704 104.471C939.757 96.4152 952.815 96.4152 960.869 104.471C968.923 112.527 968.923 125.588 960.869 133.644Z" fill="#463C74"/>
<path fill-rule="evenodd" clip-rule="evenodd" d="M0.589844 641.847C0.589844 630.455 9.82293 621.219 21.2125 621.219H87.2051C98.5947 621.219 107.828 630.455 107.828 641.847C107.828 653.24 98.5947 662.476 87.2051 662.476H21.2125C9.82293 662.476 0.589844 653.24 0.589844 641.847Z" fill="#463C74"/>
<path fill-rule="evenodd" clip-rule="evenodd" d="M656.98 1196.46C645.591 1196.46 636.357 1187.25 636.357 1175.88V1116.86C636.357 1105.49 645.591 1096.27 656.98 1096.27C668.369 1096.27 677.603 1105.49 677.603 1116.86V1175.88C677.603 1187.25 668.369 1196.46 656.98 1196.46Z" fill="#B4D51E"/>
<path fill-rule="evenodd" clip-rule="evenodd" d="M755.969 1179.96C755.969 1168.57 765.212 1159.33 776.612 1159.33H940.375C951.775 1159.33 961.018 1168.57 961.018 1179.96C961.018 1191.35 951.775 1200.59 940.375 1200.59H776.612C765.212 1200.59 755.969 1191.35 755.969 1179.96Z" fill="#FFC735"/>
<path fill-rule="evenodd" clip-rule="evenodd" d="M0.589844 32.4173C0.589844 21.0243 9.82293 11.7886 21.2125 11.7886H116.077C127.466 11.7886 136.7 21.0243 136.7 32.4173C136.7 43.8102 127.466 53.0459 116.077 53.0459H21.2125C9.82293 53.0459 0.589843 43.8102 0.589844 32.4173Z" fill="#FD6234"/>
<path fill-rule="evenodd" clip-rule="evenodd" d="M945.698 1200.59C934.309 1200.59 925.075 1191.35 925.075 1179.96C925.075 1168.57 934.309 1159.33 945.698 1159.33C957.087 1159.33 966.321 1168.57 966.321 1179.96C966.321 1191.35 957.087 1200.59 945.698 1200.59Z" fill="#FD6234"/>
<path fill-rule="evenodd" clip-rule="evenodd" d="M885.63 142.569C850.755 142.569 822.486 170.847 822.486 205.731C822.486 217.105 813.267 226.327 801.896 226.327C790.523 226.327 781.306 217.105 781.306 205.731C781.306 148.097 828.013 101.376 885.63 101.376C897.001 101.376 906.22 110.597 906.22 121.972C906.22 133.347 897.001 142.569 885.63 142.569Z" fill="#FD6234"/>
<path fill-rule="evenodd" clip-rule="evenodd" d="M787.346 191.112C795.399 183.056 808.457 183.056 816.511 191.112C824.564 199.168 824.564 212.229 816.511 220.285C808.457 228.341 795.399 228.341 787.346 220.285C779.292 212.229 779.292 199.168 787.346 191.112Z" fill="#463C74"/>
<path fill-rule="evenodd" clip-rule="evenodd" d="M1196.12 794.5C1269.01 794.5 1328.1 735.39 1328.1 662.476C1328.1 651.084 1337.33 641.848 1348.72 641.848C1360.11 641.848 1369.35 651.084 1369.35 662.476C1369.35 758.177 1291.79 835.757 1196.12 835.757C1184.73 835.757 1175.49 826.521 1175.49 815.129C1175.49 803.736 1184.73 794.5 1196.12 794.5Z" fill="#B4D51E"/>
<path fill-rule="evenodd" clip-rule="evenodd" d="M1363.31 677.063C1355.25 685.119 1342.19 685.119 1334.14 677.063C1326.09 669.007 1326.09 655.945 1334.14 647.89C1342.19 639.834 1355.25 639.834 1363.31 647.89C1371.36 655.945 1371.36 669.007 1363.31 677.063Z" fill="#463C74"/>
<path fill-rule="evenodd" clip-rule="evenodd" d="M1421.64 677.063C1413.58 685.119 1400.52 685.119 1392.48 677.063C1384.42 669.007 1384.42 655.945 1392.48 647.89C1400.52 639.834 1413.58 639.834 1421.64 647.89C1429.69 655.945 1429.69 669.007 1421.64 677.063Z" fill="#463C74"/>
<path fill-rule="evenodd" clip-rule="evenodd" d="M1559.63 754.489C1460.76 754.489 1380.61 834.663 1380.61 933.563C1380.61 944.974 1371.36 954.225 1359.95 954.225C1348.54 954.225 1339.3 944.974 1339.3 933.563C1339.3 811.839 1437.94 713.164 1559.63 713.164C1571.03 713.164 1580.29 722.415 1580.29 733.826C1580.29 745.238 1571.03 754.489 1559.63 754.489Z" fill="#FFC735"/>
<path fill-rule="evenodd" clip-rule="evenodd" d="M1142.5 239.779C1142.55 251.172 1133.37 260.455 1121.98 260.511C1110.59 260.569 1101.31 251.381 1101.25 239.987C1101.19 228.594 1110.38 219.312 1121.77 219.255C1133.16 219.197 1142.44 228.386 1142.5 239.779Z" fill="#FD6234"/>
<path fill-rule="evenodd" clip-rule="evenodd" d="M1331.05 30.5449C1331.1 41.9378 1321.92 51.2201 1310.53 51.2776C1299.14 51.3352 1289.86 42.1462 1289.8 30.7534C1289.74 19.3608 1298.93 10.0784 1310.32 10.0208C1321.71 9.96315 1330.99 19.1523 1331.05 30.5449Z" fill="#FD6234"/>
<path fill-rule="evenodd" clip-rule="evenodd" d="M1142.5 32.313C1142.55 43.7058 1133.37 52.9882 1121.98 53.0457C1110.59 53.1033 1101.31 43.9143 1101.25 32.5215C1101.19 21.1288 1110.38 11.8465 1121.77 11.7888C1133.16 11.7312 1142.44 20.9203 1142.5 32.313Z" fill="#FD6234"/>
<path fill-rule="evenodd" clip-rule="evenodd" d="M1142.5 87.1265C1142.55 98.5193 1133.37 107.802 1121.98 107.859C1110.59 107.917 1101.31 98.7278 1101.25 87.335C1101.19 75.9423 1110.38 66.6599 1121.77 66.6023C1133.16 66.5447 1142.44 75.7338 1142.5 87.1265Z" fill="#FD6234"/>
<path d="M1549.04 683.105H1467.17C1455.78 683.105 1446.53 673.869 1446.53 662.476C1446.53 651.084 1455.78 641.848 1467.17 641.848H1549.04C1560.43 641.848 1569.68 651.084 1569.68 662.476C1569.68 673.869 1560.43 683.105 1549.04 683.105Z" fill="#E5E0D5"/>
<path fill-rule="evenodd" clip-rule="evenodd" d="M1580.29 733.793C1580.29 745.185 1571.05 754.421 1559.66 754.421C1548.28 754.421 1539.04 745.185 1539.04 733.793C1539.04 722.4 1548.28 713.164 1559.66 713.164C1571.05 713.164 1580.29 722.4 1580.29 733.793Z" fill="#FD6234"/>
<path fill-rule="evenodd" clip-rule="evenodd" d="M1344.55 184.775C1344.55 165.762 1329.14 150.349 1310.13 150.349C1291.12 150.349 1275.71 165.762 1275.71 184.775C1275.71 203.788 1291.12 219.201 1310.13 219.201C1321.53 219.201 1330.78 228.449 1330.78 239.856C1330.78 251.263 1321.53 260.512 1310.13 260.512C1268.31 260.512 1234.42 226.604 1234.42 184.775C1234.42 142.946 1268.31 109.038 1310.13 109.038C1351.95 109.038 1385.84 142.946 1385.84 184.775C1385.84 196.182 1376.59 205.43 1365.19 205.43C1353.79 205.43 1344.55 196.182 1344.55 184.775Z" fill="#463C74"/>
<path d="M1450.7 42.4906C1431.75 42.4906 1416.4 57.9036 1416.4 76.9164C1416.4 95.9292 1431.75 111.342 1450.7 111.342C1462.06 111.342 1471.28 120.59 1471.28 131.998C1471.28 143.405 1462.06 152.653 1450.7 152.653C1409.02 152.653 1375.24 118.745 1375.24 76.9164C1375.24 35.0881 1409.02 1.17969 1450.7 1.17969C1462.06 1.17969 1471.28 10.4275 1471.28 21.8352C1471.28 33.2429 1462.06 42.4906 1450.7 42.4906Z" fill="#E5E0D5"/>
<path fill-rule="evenodd" clip-rule="evenodd" d="M1332.23 239.883C1332.23 251.276 1322.99 260.512 1311.6 260.512C1300.21 260.512 1290.98 251.276 1290.98 239.883C1290.98 228.491 1300.21 219.254 1311.6 219.254C1322.99 219.254 1332.23 228.491 1332.23 239.883Z" fill="#FD6234"/>
<path fill-rule="evenodd" clip-rule="evenodd" d="M1472.46 132.025C1472.46 143.417 1463.22 152.653 1451.84 152.653C1440.45 152.653 1431.21 143.417 1431.21 132.025C1431.21 120.632 1440.45 111.396 1451.84 111.396C1463.22 111.396 1472.46 120.632 1472.46 132.025Z" fill="#463C74"/>
<path fill-rule="evenodd" clip-rule="evenodd" d="M1387.61 239.883C1387.61 251.276 1378.37 260.512 1366.99 260.512C1355.6 260.512 1346.37 251.276 1346.37 239.883C1346.37 228.491 1355.6 219.254 1366.99 219.254C1378.37 219.254 1387.61 228.491 1387.61 239.883Z" fill="#463C74"/>
<path fill-rule="evenodd" clip-rule="evenodd" d="M1442.41 239.883C1442.41 251.276 1433.17 260.512 1421.79 260.512C1410.4 260.512 1401.16 251.276 1401.16 239.883C1401.16 228.491 1410.4 219.254 1421.79 219.254C1433.17 219.254 1442.41 228.491 1442.41 239.883Z" fill="#463C74"/>
<path fill-rule="evenodd" clip-rule="evenodd" d="M1474.23 76.0325C1474.23 87.4254 1464.99 96.6612 1453.61 96.6612C1442.22 96.6612 1432.98 87.4254 1432.98 76.0325C1432.98 64.6395 1442.22 55.4038 1453.61 55.4038C1464.99 55.4038 1474.23 64.6395 1474.23 76.0325Z" fill="#FD6234"/>
<path fill-rule="evenodd" clip-rule="evenodd" d="M1529.02 76.0325C1529.02 87.4254 1519.79 96.6612 1508.4 96.6612C1497.02 96.6612 1487.78 87.4254 1487.78 76.0325C1487.78 64.6395 1497.02 55.4038 1508.4 55.4038C1519.79 55.4038 1529.02 64.6395 1529.02 76.0325Z" fill="#FD6234"/>
<path fill-rule="evenodd" clip-rule="evenodd" d="M1584.41 76.0325C1584.41 87.4254 1575.17 96.6612 1563.79 96.6612C1552.4 96.6612 1543.17 87.4254 1543.17 76.0325C1543.17 64.6395 1552.4 55.4038 1563.79 55.4038C1575.17 55.4038 1584.41 64.6395 1584.41 76.0325Z" fill="#FD6234"/>
<path fill-rule="evenodd" clip-rule="evenodd" d="M1508.99 443.812C1497.61 443.812 1488.37 434.576 1488.37 423.183C1488.37 411.791 1497.61 402.555 1508.99 402.555C1520.38 402.555 1529.61 411.791 1529.61 423.183C1529.61 434.576 1520.38 443.812 1508.99 443.812Z" fill="#463C74"/>
</g>
</g>
</g>
</pattern><clipPath id="clip0_443_39">
<rect width="1600" height="1200" fill="white"/>
</clipPath>
</defs>
</svg>
